<svg width="29" height="26" viewBox="0 0 29 26" fill="none" xmlns="http://www.w3.org/2000/svg">
<path fill-rule="evenodd" clip-rule="evenodd" d="M2.23094 1.92485C2.11457 1.92649 2.00368 1.96886 1.92254 2.04267C1.84141 2.11649 1.79665 2.21574 1.79806 2.31868V23.232C1.77708 23.3004 1.77762 23.3726 1.79964 23.4408C1.82166 23.509 1.86431 23.5705 1.923 23.6188C1.9776 23.6687 2.04628 23.7047 2.12193 23.7232C2.19759 23.7417 2.27745 23.7419 2.35324 23.7239H25.9935C26.1102 23.7239 26.2221 23.6829 26.3046 23.6099C26.3871 23.5369 26.4334 23.438 26.4334 23.3347C26.4334 23.2315 26.3871 23.1326 26.3046 23.0596C26.2221 22.9866 26.1102 22.9456 25.9935 22.9456H2.6779V2.31868C2.67861 2.26666 2.66752 2.21503 2.64529 2.16687C2.62306 2.1187 2.59014 2.07496 2.54846 2.03824C2.50679 2.00153 2.45722 1.97257 2.40269 1.9531C2.34815 1.93362 2.28975 1.92402 2.23094 1.92485ZM25.1207 6.61498C24.3966 6.61498 23.801 7.1419 23.801 7.78245C23.801 7.98248 23.8652 8.1685 23.9681 8.33428L17.7072 14.4876C17.5368 14.4245 17.3532 14.3942 17.1685 14.3989C16.9839 14.4036 16.8025 14.4431 16.6365 14.5149L13.9882 12.1722C14.0717 12.0204 14.1228 11.853 14.1228 11.674C14.1228 11.0335 13.5263 10.5066 12.803 10.5066C12.0789 10.5066 11.4833 11.0335 11.4833 11.674C11.4833 11.8289 11.5194 11.976 11.5827 12.1114L5.51624 16.8833C5.32365 16.7863 5.10615 16.7345 4.88452 16.7331C4.16042 16.7331 3.56477 17.26 3.56477 17.9006C3.56477 18.5403 4.16042 19.068 4.88452 19.068C5.60774 19.068 6.20427 18.5403 6.20427 17.9006C6.20351 17.7501 6.16943 17.6012 6.10397 17.4624L12.1722 12.6913C12.3605 12.7831 12.5734 12.8415 12.803 12.8415C13.0054 12.8415 13.1946 12.7956 13.3661 12.7224L16.0162 15.0667C15.9298 15.2217 15.8841 15.392 15.8824 15.5648C15.8824 16.2054 16.4781 16.7323 17.2022 16.7323C17.9254 16.7323 18.522 16.2054 18.522 15.5648C18.522 15.3648 18.4577 15.1772 18.3548 15.0122L24.6166 8.85809C24.7723 8.91568 24.9421 8.94993 25.1207 8.94993C25.8439 8.94993 26.4405 8.42223 26.4405 7.78245C26.4405 7.1419 25.8439 6.61498 25.1207 6.61498ZM25.1207 7.3933C25.3688 7.3933 25.5606 7.56297 25.5606 7.78245C25.5606 8.00194 25.3688 8.17161 25.1207 8.17161C25.0627 8.17235 25.0051 8.16278 24.9514 8.14348C24.8976 8.12419 24.8488 8.09555 24.8078 8.05927C24.7668 8.02298 24.7344 7.97979 24.7126 7.93224C24.6908 7.8847 24.68 7.83376 24.6808 7.78245C24.6808 7.56297 24.8726 7.3933 25.1207 7.3933ZM12.803 11.2849C13.0511 11.2849 13.2429 11.4545 13.2429 11.674C13.2429 11.8935 13.0511 12.0632 12.803 12.0632C12.6954 12.0624 12.592 12.0264 12.5127 11.962C12.4971 11.9436 12.4798 11.9264 12.4608 11.9106C12.4085 11.854 12.3755 11.7854 12.3658 11.7128C12.3561 11.6402 12.3701 11.5666 12.406 11.5008C12.442 11.435 12.4985 11.3796 12.5688 11.3412C12.6391 11.3028 12.7204 11.283 12.803 11.2841V11.2849ZM17.2022 15.1764C17.4503 15.1764 17.6421 15.3461 17.6421 15.5656C17.6421 15.7851 17.4503 15.9548 17.2022 15.9548C17.1442 15.9555 17.0866 15.9459 17.0329 15.9266C16.9791 15.9073 16.9303 15.8787 16.8893 15.8424C16.8483 15.8061 16.8159 15.7629 16.7941 15.7154C16.7723 15.6678 16.7615 15.6169 16.7623 15.5656C16.7623 15.3461 16.9541 15.1764 17.2022 15.1764ZM4.88452 17.5114C5.0077 17.5114 5.11768 17.5526 5.19686 17.6219C5.27605 17.692 5.32444 17.7908 5.32444 17.9006C5.32444 18.12 5.13263 18.2897 4.88452 18.2897C4.82652 18.2904 4.76894 18.2809 4.71519 18.2616C4.66145 18.2423 4.61262 18.2136 4.5716 18.1774C4.53059 18.1411 4.49821 18.0979 4.4764 18.0503C4.45459 18.0028 4.44377 17.9519 4.4446 17.9006C4.4446 17.6811 4.63641 17.5114 4.88452 17.5114Z" fill="#F2F2F2"/>
</svg>
