<svg width="26" height="26" viewBox="0 0 26 26" fill="none" xmlns="http://www.w3.org/2000/svg">
<g clip-path="url(#clip0_828_1997)">
<path d="M3.82705 13.2939H1.76038C1.18969 13.2939 0.727051 13.7566 0.727051 14.3273V23.6273C0.727051 24.198 1.18969 24.6606 1.76038 24.6606H3.82705C4.39775 24.6606 4.86038 24.198 4.86038 23.6273V14.3273C4.86038 13.7566 4.39775 13.2939 3.82705 13.2939Z" fill="#F2F2F2"/>
<path d="M24.4938 17.5406C24.4978 17.8144 24.4291 18.0844 24.2948 18.3231C24.1604 18.5618 23.9653 18.7607 23.7291 18.8994L14.889 23.4977C14.0816 23.9152 13.1597 24.0568 12.2643 23.9007L5.8938 22.7744V14.8436C7.85713 14.8436 9.26247 14.5956 10.5438 15.8769H14.1605C14.5716 15.8769 14.9658 16.0402 15.2565 16.3309C15.5472 16.6216 15.7105 17.0158 15.7105 17.4269C15.7105 17.838 15.5472 18.2322 15.2565 18.5229C14.9658 18.8136 14.5716 18.9769 14.1605 18.9769H10.5438C10.4068 18.9687 10.2721 19.0152 10.1694 19.1063C10.0667 19.1974 10.0044 19.3255 9.99613 19.4626C9.98791 19.5996 10.0345 19.7343 10.1255 19.837C10.2166 19.9397 10.3448 20.002 10.4818 20.0102H14.9975C15.5272 20.008 16.0403 19.825 16.4518 19.4915C16.8633 19.1579 17.1486 18.6939 17.2605 18.1761L22.4271 16.1507C22.6548 16.0546 22.9029 16.0167 23.1489 16.0404C23.395 16.0642 23.6312 16.1489 23.8363 16.2868C24.0414 16.4247 24.2089 16.6116 24.3237 16.8305C24.4385 17.0494 24.497 17.2934 24.4938 17.5406ZM14.6771 0.893555C13.4509 0.893555 12.2522 1.25718 11.2326 1.93844C10.213 2.61971 9.41834 3.58802 8.94908 4.72092C8.47982 5.85382 8.35704 7.10043 8.59626 8.30312C8.83549 9.5058 9.42599 10.6105 10.2931 11.4776C11.1602 12.3447 12.2649 12.9352 13.4676 13.1744C14.6703 13.4137 15.9169 13.2909 17.0498 12.8216C18.1827 12.3523 19.151 11.5577 19.8322 10.5381C20.5135 9.51851 20.8771 8.3198 20.8771 7.09356C20.8771 5.44921 20.2239 3.87222 19.0612 2.70949C17.8985 1.54677 16.3215 0.893555 14.6771 0.893555ZM14.4188 6.57689H14.9355C15.4151 6.54263 15.8886 6.7003 16.252 7.0152C16.6153 7.33011 16.8387 7.77646 16.873 8.25606C16.9072 8.73566 16.7496 9.20922 16.4347 9.57257C16.1197 9.93593 15.6734 10.1593 15.1938 10.1936V10.7102C15.1938 10.8473 15.1394 10.9787 15.0425 11.0756C14.9456 11.1725 14.8142 11.2269 14.6771 11.2269C14.5401 11.2269 14.4087 11.1725 14.3118 11.0756C14.2149 10.9787 14.1605 10.8473 14.1605 10.7102V10.1936H13.1271C12.9901 10.1936 12.8587 10.1391 12.7618 10.0422C12.6649 9.94534 12.6105 9.81392 12.6105 9.67689C12.6105 9.53986 12.6649 9.40845 12.7618 9.31155C12.8587 9.21466 12.9901 9.16022 13.1271 9.16022H14.9355C15.141 9.16022 15.3381 9.07857 15.4835 8.93323C15.6288 8.78789 15.7105 8.59077 15.7105 8.38522C15.7105 8.17968 15.6288 7.98256 15.4835 7.83722C15.3381 7.69187 15.141 7.61022 14.9355 7.61022H14.4188C13.9589 7.61624 13.5141 7.44631 13.1754 7.1352C12.8367 6.82409 12.6297 6.39532 12.5967 5.9366C12.5637 5.47788 12.7072 5.02389 12.9979 4.6675C13.2886 4.31111 13.7045 4.07926 14.1605 4.01939V3.47689C14.1605 3.33986 14.2149 3.20844 14.3118 3.11155C14.4087 3.01466 14.5401 2.96022 14.6771 2.96022C14.8142 2.96022 14.9456 3.01466 15.0425 3.11155C15.1394 3.20844 15.1938 3.33986 15.1938 3.47689V3.99356H16.2271C16.3642 3.99356 16.4956 4.04799 16.5925 4.14488C16.6894 4.24178 16.7438 4.37319 16.7438 4.51022C16.7438 4.64725 16.6894 4.77867 16.5925 4.87556C16.4956 4.97246 16.3642 5.02689 16.2271 5.02689H14.4188C14.2133 5.02689 14.0161 5.10854 13.8708 5.25388C13.7255 5.39922 13.6438 5.59635 13.6438 5.80189C13.6438 6.00743 13.7255 6.20456 13.8708 6.3499C14.0161 6.49524 14.2133 6.57689 14.4188 6.57689Z" fill="#F2F2F2"/>
</g>
<defs>
<clipPath id="clip0_828_1997">
<rect width="24.8" height="24.8" fill="white" transform="translate(0.210449 0.376953)"/>
</clipPath>
</defs>
</svg>
