<svg width="25" height="21" viewBox="0 0 25 21" fill="none" xmlns="http://www.w3.org/2000/svg">
<path d="M16.133 12.9705V9.24755H19.856V6.76555L24.82 11.109L19.856 15.4525V12.9705H16.133ZM14.892 5.15225V6.76555H0V5.15225L7.446 0.560547L14.892 5.15225ZM6.205 8.00655H8.687V14.2115H6.205V8.00655ZM1.241 8.00655H3.723V14.2115H1.241V8.00655ZM13.651 8.00655V11.109L11.169 13.3428V8.00655H13.651ZM8.8111 15.4525L8.0665 16.073L10.1762 17.9345H0V15.4525H8.8111ZM18.615 14.2115V17.9345H14.892V20.4165L9.928 16.073L14.892 11.7295V14.2115H18.615Z" fill="#CBD5E1"/>
</svg>
