<svg width="25" height="14" viewBox="0 0 25 14" fill="none" xmlns="http://www.w3.org/2000/svg">
<g clip-path="url(#clip0_828_2953)">
<path d="M17.8699 7.48095C19.1758 6.73092 20.4781 5.97478 21.7885 5.23261C23.0322 4.52785 24.4954 5.17773 24.7774 6.54904C24.9406 7.34231 24.5864 8.19928 23.8702 8.61666C21.5222 9.98496 19.1708 11.3478 16.8077 12.6899C16.0763 13.1052 15.3229 13.0288 14.6563 12.5198C13.9792 12.003 13.7658 11.2902 13.9246 10.4606C14.1059 9.82906 14.5209 9.40683 15.0868 9.09095C16.0224 8.56876 16.9429 8.01904 17.8699 7.48095Z" fill="#CBD5E1"/>
<path d="M18.8286 6.9355C17.526 6.17965 16.2201 5.42972 14.9221 4.66621C13.69 3.94139 13.5213 2.34923 14.5678 1.41925C15.1731 0.881456 16.0924 0.759586 16.8119 1.17115C19.171 2.52045 21.527 3.87546 23.8707 5.25094C24.5961 5.67666 24.9066 6.36745 24.7992 7.19921C24.6902 8.04387 24.1797 8.58506 23.3818 8.86244C22.7441 9.02125 22.171 8.87291 21.6145 8.54075C20.6944 7.99151 19.7581 7.46913 18.8286 6.9355Z" fill="#CBD5E1"/>
<path d="M6.95656 6.40095C6.12073 6.87583 5.28441 7.34983 4.44935 7.82616C3.961 8.10481 3.47788 8.39295 2.98701 8.66694C1.9978 9.21909 0.822532 8.89546 0.261658 7.92292C-0.27362 6.99489 0.0340121 5.7917 0.986674 5.23558C3.31597 3.876 5.65128 2.52632 7.99503 1.19166C8.71384 0.782424 9.4596 0.833906 10.1243 1.32323C10.8259 1.8397 11.0555 2.56646 10.898 3.41839C10.8003 3.6246 10.7419 3.86631 10.5955 4.02871C10.3576 4.2929 10.0871 4.54585 9.78594 4.73162C8.85403 5.30626 7.90118 5.84706 6.95656 6.40095Z" fill="#CBD5E1"/>
<path d="M5.99823 6.93356C6.82747 7.41988 7.65613 7.90726 8.48614 8.39222C8.97159 8.6759 9.46265 8.95018 9.94538 9.23823C10.9182 9.81898 11.2256 10.9985 10.6638 11.9705C10.1277 12.8981 8.93193 13.2334 7.97394 12.6863C5.63184 11.3488 3.29537 10.0013 0.967718 8.63887C0.253852 8.221 -0.0744314 7.5494 0.0169954 6.72908C0.113464 5.8632 0.627994 5.30096 1.44463 5.01137C1.67199 4.99304 1.91049 4.92265 2.12437 4.96822C2.47214 5.04229 2.8265 5.15001 3.13792 5.31793C4.10153 5.8376 5.04624 6.39237 5.99823 6.93356Z" fill="#CBD5E1"/>
</g>
<defs>
<clipPath id="clip0_828_2953">
<rect width="24.82" height="12.1191" fill="white" transform="translate(0 0.916992)"/>
</clipPath>
</defs>
</svg>
