<svg width="25" height="25" viewBox="0 0 25 25" fill="none" xmlns="http://www.w3.org/2000/svg">
<path fill-rule="evenodd" clip-rule="evenodd" d="M19.6492 5.07352V8.44387C20.0566 8.44387 20.46 8.52412 20.8364 8.68003C21.2128 8.83595 21.5549 9.06447 21.843 9.35257C22.1311 9.64066 22.3596 9.98268 22.5155 10.3591C22.6714 10.7355 22.7517 11.1389 22.7517 11.5464C22.7517 11.9538 22.6714 12.3572 22.5155 12.7336C22.3596 13.1101 22.1311 13.4521 21.843 13.7402C21.5549 14.0283 21.2128 14.2568 20.8364 14.4127C20.46 14.5686 20.0566 14.6489 19.6492 14.6489V17.7514C19.6492 19.4557 17.7039 20.4288 16.3398 19.406L14.2094 17.8072C13.0707 16.9534 11.7448 16.3833 10.3417 16.1443V19.0854C10.3418 19.7615 10.0975 20.4149 9.65383 20.925C9.21018 21.4352 8.59707 21.7677 7.92752 21.8615C7.25796 21.9552 6.5771 21.8037 6.01044 21.4349C5.44378 21.0662 5.02952 20.505 4.84403 19.8549L3.22039 14.1711C2.6361 13.4811 2.25586 12.6418 2.1224 11.7475C1.98894 10.8533 2.10755 9.93952 2.46491 9.10898C2.82227 8.27844 3.4042 7.56404 4.14529 7.04608C4.88639 6.52813 5.75726 6.22715 6.66002 6.17697L9.78114 6.00323C11.3082 5.91826 12.7933 5.47202 14.1143 4.70122L16.5384 3.28648C17.918 2.48293 19.6492 3.47676 19.6492 5.07352ZM5.82649 15.7637L6.83273 19.2871C6.88116 19.4577 6.98966 19.6049 7.1382 19.7017C7.28673 19.7985 7.46528 19.8383 7.64086 19.8137C7.81644 19.7891 7.9772 19.7019 8.09345 19.568C8.2097 19.4341 8.27359 19.2627 8.27332 19.0854V15.9726L6.66002 15.8826C6.37927 15.8671 6.10039 15.8273 5.82649 15.7637ZM17.5808 5.07352L15.1557 6.48929C13.6824 7.34811 12.0396 7.87537 10.3417 8.03434V14.0522C12.1897 14.3066 13.9488 15.0274 15.4504 16.1525L17.5808 17.7514V5.07352ZM8.27332 8.15844L6.77378 8.24117C6.07618 8.27969 5.41837 8.57833 4.93019 9.07814C4.44201 9.57796 4.15895 10.2426 4.13687 10.9409C4.11479 11.6393 4.3553 12.3205 4.81093 12.8501C5.26656 13.3798 5.9042 13.7194 6.59797 13.8019L6.77378 13.8174L8.27332 13.9001V8.15844ZM19.6492 10.5122V12.5805C19.9127 12.5802 20.1663 12.4793 20.3579 12.2984C20.5496 12.1174 20.665 11.8701 20.6804 11.607C20.6958 11.3438 20.6102 11.0847 20.4411 10.8826C20.2719 10.6805 20.0319 10.5506 19.7702 10.5194L19.6492 10.5122Z" fill="#CBD5E1"/>
</svg>
