<svg width="25" height="22" viewBox="0 0 25 22" fill="none" xmlns="http://www.w3.org/2000/svg">
<path d="M6.79888 10.1088H16.3452V1.51713C16.3452 1.26395 16.2446 1.02113 16.0656 0.842106C15.8866 0.663077 15.6438 0.5625 15.3906 0.5625H1.07109C0.817903 0.5625 0.575089 0.663077 0.39606 0.842106C0.217032 1.02113 0.116455 1.26395 0.116455 1.51713V20.6098C0.116455 20.863 0.217032 21.1058 0.39606 21.2848C0.575089 21.4638 0.817903 21.5644 1.07109 21.5644H15.3906C15.6438 21.5644 15.8866 21.4638 16.0656 21.2848C16.2446 21.1058 16.3452 20.863 16.3452 20.6098V12.0181H6.79888V10.1088ZM24.6571 10.3887L19.2091 4.94009L17.8589 6.29029L21.6774 10.1088H16.3452V12.0181H21.6774L17.8589 15.8366L19.2091 17.1868L24.6571 11.7383C24.836 11.5593 24.9365 11.3165 24.9365 11.0635C24.9365 10.8104 24.836 10.5677 24.6571 10.3887V10.3887Z" fill="#CBD5E1"/>
</svg>
