<svg width="34" height="34" viewBox="0 0 34 34" fill="none" xmlns="http://www.w3.org/2000/svg">
<path d="M15.5904 2.83301L25.9293 6.06301C26.2176 6.15303 26.4696 6.33286 26.6485 6.57625C26.8275 6.81964 26.9239 7.11385 26.9237 7.41592V9.91634H29.7571C30.1328 9.91634 30.4931 10.0656 30.7588 10.3313C31.0245 10.5969 31.1738 10.9573 31.1738 11.333V22.6663C31.1738 23.0421 31.0245 23.4024 30.7588 23.6681C30.4931 23.9338 30.1328 24.083 29.7571 24.083L25.1954 24.0844C24.6472 24.8069 23.9813 25.4444 23.2121 25.9686L15.5904 31.1663L7.96875 25.97C6.82482 25.1901 5.88873 24.1425 5.24187 22.9184C4.595 21.6943 4.25694 20.3307 4.25708 18.9462V7.41592C4.25725 7.11409 4.35382 6.8202 4.53271 6.5771C4.7116 6.33399 4.96346 6.15437 5.25158 6.06442L15.5904 2.83301ZM15.5904 5.79951L7.09042 8.45717V18.9462C7.09021 19.8135 7.2891 20.6693 7.67177 21.4476C8.05443 22.226 8.61065 22.9061 9.29758 23.4356L9.56533 23.6283L15.5904 27.7366L20.9483 24.083H14.1738C13.798 24.083 13.4377 23.9338 13.172 23.6681C12.9063 23.4024 12.7571 23.0421 12.7571 22.6663V11.333C12.7571 10.9573 12.9063 10.5969 13.172 10.3313C13.4377 10.0656 13.798 9.91634 14.1738 9.91634H24.0904V8.45717L15.5904 5.79951ZM15.5904 16.9997V21.2497H28.3404V16.9997H15.5904ZM15.5904 14.1663H28.3404V12.7497H15.5904V14.1663Z" fill="#704EF4"/>
</svg>
