<svg width="14" height="15" viewBox="0 0 14 15" fill="none" xmlns="http://www.w3.org/2000/svg">
<rect x="0.442505" y="3.13672" width="11.5146" height="11.2156" rx="5.38213" transform="rotate(-11.1289 0.442505 3.13672)" fill="#221F42"/>
<path d="M10.118 5.09159C10.0684 5.01707 9.9912 4.96526 9.90341 4.94752C9.86014 4.93836 9.81548 4.93777 9.77198 4.94578L8.11137 5.27245C8.02328 5.28978 7.94569 5.34139 7.89565 5.41592C7.84562 5.49046 7.82725 5.58182 7.84458 5.66991C7.8619 5.75799 7.91351 5.83558 7.98805 5.88562C8.06259 5.93565 8.15395 5.95402 8.24203 5.9367L9.10223 5.76748L7.61088 7.98926L6.30259 7.10821C6.26559 7.08315 6.224 7.06567 6.18021 7.05677C6.13642 7.04787 6.0913 7.04773 6.04746 7.05635C6.00362 7.06498 5.96191 7.0822 5.92476 7.10702C5.8876 7.13184 5.85573 7.16378 5.83098 7.20098L4.23024 9.58572C4.20519 9.62272 4.1877 9.66431 4.1788 9.7081C4.1699 9.75189 4.16976 9.79701 4.17839 9.84085C4.18701 9.8847 4.20423 9.9264 4.22906 9.96356C4.25388 10.0007 4.28581 10.0326 4.32302 10.0573C4.36001 10.0824 4.40161 10.0999 4.4454 10.1088C4.48919 10.1177 4.5343 10.1178 4.57815 10.1092C4.62199 10.1006 4.6637 10.0833 4.70085 10.0585C4.73801 10.0337 4.76988 10.0018 4.79463 9.96456L6.20529 7.85869L7.51358 8.73975C7.55058 8.76481 7.59217 8.78229 7.63596 8.79119C7.67975 8.80009 7.72487 8.80023 7.76871 8.79161C7.81256 8.78298 7.85426 8.76576 7.89141 8.74094C7.92857 8.71612 7.96044 8.68418 7.98519 8.64698L9.66265 6.14365L9.83186 7.00385C9.84919 7.09194 9.9008 7.16953 9.97533 7.21956C10.0499 7.2696 10.1412 7.28797 10.2293 7.27064C10.3174 7.25331 10.395 7.20171 10.445 7.12717C10.4951 7.05263 10.5134 6.96127 10.4961 6.87319L10.1694 5.21257C10.1604 5.16927 10.1429 5.12817 10.118 5.09159Z" fill="#F5F5F5"/>
</svg>
