<svg width="25" height="27" viewBox="0 0 25 27" fill="none" xmlns="http://www.w3.org/2000/svg">
<path d="M14.7383 26.1179H10.0824C9.79073 26.118 9.50776 26.0183 9.28046 25.8354C9.05317 25.6526 8.89521 25.3975 8.83278 25.1126L8.31219 22.7028C7.61772 22.3985 6.95921 22.0179 6.34879 21.5682L3.9991 22.3165C3.72098 22.4052 3.42089 22.396 3.14866 22.2906C2.87643 22.1852 2.64845 21.9899 2.50257 21.737L0.169506 17.7066C0.0251551 17.4535 -0.0290308 17.159 0.0158139 16.8711C0.0606586 16.5832 0.201879 16.319 0.41637 16.1218L2.23907 14.459C2.15618 13.7058 2.15618 12.9457 2.23907 12.1925L0.41637 10.5335C0.201575 10.3362 0.0601628 10.0718 0.0153107 9.78367C-0.0295413 9.4955 0.0248276 9.20065 0.169506 8.94742L2.49745 4.91446C2.64333 4.6616 2.87132 4.46625 3.14354 4.36085C3.41577 4.25545 3.71586 4.24634 3.99398 4.33503L6.34367 5.0833C6.65577 4.85306 6.98066 4.63817 7.31578 4.44375C7.63939 4.26212 7.97195 4.09712 8.31219 3.95002L8.83406 1.54278C8.89619 1.25779 9.05385 1.0026 9.2809 0.819514C9.50796 0.636426 9.79077 0.53644 10.0824 0.536133H14.7383C15.03 0.53644 15.3128 0.636426 15.5399 0.819514C15.7669 1.0026 15.9246 1.25779 15.9867 1.54278L16.5137 3.9513C17.2073 4.25735 17.8656 4.63776 18.4771 5.08585L20.8281 4.33759C21.106 4.24922 21.4058 4.2585 21.6778 4.36389C21.9497 4.46927 22.1775 4.66443 22.3233 4.91701L24.6513 8.94998C24.948 9.47057 24.8457 10.1293 24.4044 10.5348L22.5817 12.1976C22.6646 12.9508 22.6646 13.7109 22.5817 14.4641L24.4044 16.127C24.8457 16.5337 24.948 17.1912 24.6513 17.7117L22.3233 21.7447C22.1775 21.9976 21.9495 22.1929 21.6772 22.2983C21.405 22.4037 21.1049 22.4128 20.8268 22.3241L18.4771 21.5759C17.8672 22.0253 17.2091 22.4054 16.515 22.7091L15.9867 25.1126C15.9243 25.3973 15.7666 25.6522 15.5395 25.835C15.3125 26.0179 15.0298 26.1177 14.7383 26.1179V26.1179ZM12.4053 8.21067C11.0483 8.21067 9.74697 8.74971 8.78746 9.70921C7.82796 10.6687 7.28892 11.9701 7.28892 13.327C7.28892 14.684 7.82796 15.9853 8.78746 16.9448C9.74697 17.9043 11.0483 18.4434 12.4053 18.4434C13.7622 18.4434 15.0636 17.9043 16.0231 16.9448C16.9826 15.9853 17.5216 14.684 17.5216 13.327C17.5216 11.9701 16.9826 10.6687 16.0231 9.70921C15.0636 8.74971 13.7622 8.21067 12.4053 8.21067V8.21067Z" fill="#CBD5E1"/>
</svg>
