<svg width="19" height="19" viewBox="0 0 19 19" fill="none" xmlns="http://www.w3.org/2000/svg">
<path d="M5.40915 8.77282L8.68187 1.40918C9.33286 1.40918 9.95718 1.66778 10.4175 2.1281C10.8778 2.58842 11.1364 3.21274 11.1364 3.86373V7.13645H15.7673C16.0045 7.13377 16.2395 7.18268 16.4559 7.27981C16.6723 7.37694 16.865 7.51996 17.0207 7.69896C17.1763 7.87797 17.2912 8.08867 17.3573 8.31648C17.4235 8.54428 17.4393 8.78374 17.4037 9.01827L16.2746 16.3819C16.2154 16.7721 16.0172 17.1278 15.7165 17.3834C15.4158 17.639 15.0329 17.7773 14.6382 17.7728H5.40915M5.40915 8.77282V17.7728M5.40915 8.77282H2.9546C2.52061 8.77282 2.10439 8.94522 1.79752 9.2521C1.49064 9.55897 1.31824 9.97519 1.31824 10.4092V16.1365C1.31824 16.5704 1.49064 16.9867 1.79752 17.2935C2.10439 17.6004 2.52061 17.7728 2.9546 17.7728H5.40915" stroke="#B0B0B0" stroke-width="2" stroke-linecap="round" stroke-linejoin="round"/>
</svg>
