<svg width="19" height="19" viewBox="0 0 19 19" fill="none" xmlns="http://www.w3.org/2000/svg">
<path d="M13.591 10.4095L10.3182 17.7731C9.66724 17.7731 9.04292 17.5145 8.5826 17.0542C8.12229 16.5939 7.86368 15.9696 7.86368 15.3186V12.0458H3.23277C2.99558 12.0485 2.76063 11.9996 2.54422 11.9025C2.3278 11.8054 2.13509 11.6623 1.97944 11.4833C1.82378 11.3043 1.70891 11.0936 1.64277 10.8658C1.57663 10.638 1.56081 10.3985 1.59641 10.164L2.7255 2.80038C2.78468 2.41019 2.98287 2.05452 3.28358 1.79892C3.58428 1.54333 3.96723 1.40501 4.36186 1.40948H13.591M13.591 10.4095V1.40948M13.591 10.4095H15.7755C16.2386 10.4177 16.6885 10.2555 17.0399 9.9539C17.3914 9.65225 17.6198 9.23206 17.6819 8.77311V3.04584C17.6198 2.58689 17.3914 2.1667 17.0399 1.86505C16.6885 1.5634 16.2386 1.40129 15.7755 1.40948H13.591" stroke="#B0B0B0" stroke-width="2" stroke-linecap="round" stroke-linejoin="round"/>
</svg>
